<svg width="38" height="40" viewBox="0 0 38 40" fill="none" xmlns="http://www.w3.org/2000/svg">
<rect width="37.852" height="39.4716" fill="white"/>
<path d="M30.5572 27.8116H27.8095C26.7686 27.8116 26.448 26.986 24.5756 25.0887C22.9492 23.512 22.2289 23.3026 21.8279 23.3026C21.2613 23.3026 21.1004 23.4623 21.1004 24.2394V26.7222C21.1004 27.3881 20.8911 27.7879 19.1286 27.7879C16.2141 27.7879 12.9803 26.0255 10.7128 22.7419C7.29317 17.9302 6.35754 14.3261 6.35754 13.5809C6.35754 13.1799 6.51723 12.8049 7.28725 12.8049H10.0409C10.7376 12.8049 11.0025 13.1255 11.2734 13.8707C12.6349 17.8012 14.9024 21.2445 15.838 21.2445C16.1834 21.2445 16.3431 21.0848 16.3431 20.2036V16.1441C16.2378 14.2717 15.2525 14.1108 15.2525 13.446C15.2525 13.1255 15.5174 12.8049 15.9421 12.8049H20.2724C20.8579 12.8049 21.0732 13.1255 21.0732 13.8151V19.2916C21.0732 19.883 21.3382 20.0924 21.4979 20.0924C21.8433 20.0924 22.139 19.883 22.7789 19.2419C24.7566 17.0241 26.1736 13.6045 26.1736 13.6045C26.3581 13.2035 26.6787 12.8286 27.3754 12.8286H30.129C30.9546 12.8286 31.1392 13.2532 30.9546 13.8446C30.6093 15.4462 27.2394 20.2024 27.2394 20.2024C26.9496 20.6826 26.8384 20.892 27.2394 21.4278C27.5351 21.8288 28.4967 22.6603 29.1366 23.4055C30.3135 24.7421 31.2184 25.8635 31.4597 26.6394C31.7306 27.4094 31.3308 27.8104 30.5537 27.8104L30.5572 27.8116Z" fill="#007CC3"/>
</svg>
