<svg width="39" height="40" viewBox="0 0 39 40" fill="none" xmlns="http://www.w3.org/2000/svg">
<rect x="0.953125" width="37.852" height="39.4716" fill="white"/>
<path d="M20.6487 6.05933C24.5502 6.05933 27.7223 9.23269 27.7223 13.134C27.7223 17.0349 24.5502 20.2065 20.6487 20.2065C16.7471 20.2065 13.573 17.0349 13.573 13.134C13.573 9.23269 16.7471 6.05933 20.6487 6.05933ZM20.5735 10.2042C18.9931 10.2444 17.7189 11.5445 17.7189 13.134C17.7189 14.7481 19.0336 16.0616 20.6487 16.0616C22.2635 16.0616 23.5763 14.7481 23.5763 13.134C23.5763 11.5193 22.2635 10.2042 20.6487 10.2042C20.6235 10.2042 20.5986 10.2036 20.5735 10.2042ZM14.7913 20.4472C15.166 20.4484 15.5441 20.5515 15.885 20.7662C18.7807 22.587 22.5136 22.5882 25.4103 20.7662C26.3801 20.1555 27.6584 20.4487 28.2691 21.4184C28.8792 22.3865 28.5861 23.6664 27.617 24.2762C26.3534 25.0703 24.9648 25.6453 23.5097 25.9769L27.4655 29.9327C28.2753 30.7408 28.2753 32.0542 27.4655 32.8635C26.6553 33.6732 25.3445 33.6732 24.5357 32.8635L20.6465 28.9765L16.7617 32.8635C16.3571 33.2683 15.8263 33.4705 15.2962 33.4705C14.7656 33.4705 14.2366 33.2677 13.8308 32.8635C13.0211 32.0537 13.0214 30.7425 13.8308 29.9327L17.7845 25.9769C16.3447 25.6486 14.9555 25.0788 13.6761 24.2762C12.7089 23.6664 12.418 22.3878 13.0283 21.4184C13.4086 20.8123 14.051 20.47 14.7161 20.4482C14.7412 20.4474 14.7662 20.4471 14.7913 20.4472Z" fill="#007CC3"/>
</svg>
